<mxfile host="65bd71144e">
    <diagram name="Page-1" id="O6sBWOfz2bUCuo58S4gg">
        <mxGraphModel dx="1797" dy="968" grid="1" gridSize="10" guides="1" tooltips="1" connect="1" arrows="1" fold="1" page="0" pageScale="1" pageWidth="1169" pageHeight="827" math="0" shadow="0">
            <root>
                <mxCell id="0"/>
                <mxCell id="1" parent="0"/>
                <mxCell id="aTlmoTqcXMnjitFqs7Kw-1" value="" style="sketch=0;points=[[0.015,0.015,0],[0.985,0.015,0],[0.985,0.985,0],[0.015,0.985,0],[0.25,0,0],[0.5,0,0],[0.75,0,0],[1,0.25,0],[1,0.5,0],[1,0.75,0],[0.75,1,0],[0.5,1,0],[0.25,1,0],[0,0.75,0],[0,0.5,0],[0,0.25,0]];verticalLabelPosition=bottom;html=1;verticalAlign=top;aspect=fixed;align=center;pointerEvents=1;shape=mxgraph.cisco19.rect;prIcon=l2_switch;fillColor=#FAFAFA;strokeColor=#5c5c5c;" parent="1" vertex="1">
                    <mxGeometry x="324.75" y="40" width="80" height="80" as="geometry"/>
                </mxCell>
                <mxCell id="aTlmoTqcXMnjitFqs7Kw-3" value="" style="sketch=0;points=[[0.015,0.015,0],[0.985,0.015,0],[0.985,0.985,0],[0.015,0.985,0],[0.25,0,0],[0.5,0,0],[0.75,0,0],[1,0.25,0],[1,0.5,0],[1,0.75,0],[0.75,1,0],[0.5,1,0],[0.25,1,0],[0,0.75,0],[0,0.5,0],[0,0.25,0]];verticalLabelPosition=bottom;html=1;verticalAlign=top;aspect=fixed;align=center;pointerEvents=1;shape=mxgraph.cisco19.rect;prIcon=l2_switch;fillColor=#FAFAFA;strokeColor=#5c5c5c;" parent="1" vertex="1">
                    <mxGeometry x="746" y="50" width="80" height="80" as="geometry"/>
                </mxCell>
                <mxCell id="aTlmoTqcXMnjitFqs7Kw-4" value="" style="sketch=0;points=[[0.015,0.015,0],[0.985,0.015,0],[0.985,0.985,0],[0.015,0.985,0],[0.25,0,0],[0.5,0,0],[0.75,0,0],[1,0.25,0],[1,0.5,0],[1,0.75,0],[0.75,1,0],[0.5,1,0],[0.25,1,0],[0,0.75,0],[0,0.5,0],[0,0.25,0]];verticalLabelPosition=bottom;html=1;verticalAlign=top;aspect=fixed;align=center;pointerEvents=1;shape=mxgraph.cisco19.rect;prIcon=l2_switch;fillColor=#FAFAFA;strokeColor=#5c5c5c;comic=0;" parent="1" vertex="1">
                    <mxGeometry x="746" y="459" width="80" height="80" as="geometry"/>
                </mxCell>
                <mxCell id="aTlmoTqcXMnjitFqs7Kw-5" value="" style="sketch=0;points=[[0.015,0.015,0],[0.985,0.015,0],[0.985,0.985,0],[0.015,0.985,0],[0.25,0,0],[0.5,0,0],[0.75,0,0],[1,0.25,0],[1,0.5,0],[1,0.75,0],[0.75,1,0],[0.5,1,0],[0.25,1,0],[0,0.75,0],[0,0.5,0],[0,0.25,0]];verticalLabelPosition=bottom;html=1;verticalAlign=top;aspect=fixed;align=center;pointerEvents=1;shape=mxgraph.cisco19.rect;prIcon=l2_switch;fillColor=#FAFAFA;strokeColor=#5c5c5c;" parent="1" vertex="1">
                    <mxGeometry x="1151.5" y="463.5" width="80" height="80" as="geometry"/>
                </mxCell>
                <mxCell id="aTlmoTqcXMnjitFqs7Kw-6" value="" style="sketch=0;points=[[0.015,0.015,0],[0.985,0.015,0],[0.985,0.985,0],[0.015,0.985,0],[0.25,0,0],[0.5,0,0],[0.75,0,0],[1,0.25,0],[1,0.5,0],[1,0.75,0],[0.75,1,0],[0.5,1,0],[0.25,1,0],[0,0.75,0],[0,0.5,0],[0,0.25,0]];verticalLabelPosition=bottom;html=1;verticalAlign=top;aspect=fixed;align=center;pointerEvents=1;shape=mxgraph.cisco19.rect;prIcon=l2_switch;fillColor=#FAFAFA;strokeColor=#5c5c5c;" parent="1" vertex="1">
                    <mxGeometry x="324.5" y="459" width="80" height="80" as="geometry"/>
                </mxCell>
                <mxCell id="aTlmoTqcXMnjitFqs7Kw-7" value="" style="sketch=0;points=[[0.015,0.015,0],[0.985,0.015,0],[0.985,0.985,0],[0.015,0.985,0],[0.25,0,0],[0.5,0,0],[0.75,0,0],[1,0.25,0],[1,0.5,0],[1,0.75,0],[0.75,1,0],[0.5,1,0],[0.25,1,0],[0,0.75,0],[0,0.5,0],[0,0.25,0]];verticalLabelPosition=bottom;html=1;verticalAlign=top;aspect=fixed;align=center;pointerEvents=1;shape=mxgraph.cisco19.rect;prIcon=l2_switch;fillColor=#FAFAFA;strokeColor=#5c5c5c;" parent="1" vertex="1">
                    <mxGeometry x="-77.75" y="459" width="80" height="80" as="geometry"/>
                </mxCell>
                <mxCell id="aTlmoTqcXMnjitFqs7Kw-42" style="edgeStyle=orthogonalEdgeStyle;rounded=0;orthogonalLoop=1;jettySize=auto;html=1;exitX=0.5;exitY=1;exitDx=0;exitDy=0;endArrow=none;endFill=0;strokeColor=#5c5c5c;flowAnimation=1;" parent="1" target="aTlmoTqcXMnjitFqs7Kw-27" edge="1">
                    <mxGeometry relative="1" as="geometry">
                        <mxPoint x="-37.75" y="569" as="sourcePoint"/>
                    </mxGeometry>
                </mxCell>
                <mxCell id="aTlmoTqcXMnjitFqs7Kw-8" value="&lt;b style=&quot;&quot;&gt;&lt;font color=&quot;#5c5c5c&quot;&gt;Arista cEOS&lt;/font&gt;&lt;/b&gt;" style="rounded=1;whiteSpace=wrap;html=1;fillColor=#d5e8d4;strokeColor=#82b366;" parent="1" vertex="1">
                    <mxGeometry x="-100" y="539" width="120" height="30" as="geometry"/>
                </mxCell>
                <mxCell id="aTlmoTqcXMnjitFqs7Kw-23" style="rounded=0;orthogonalLoop=1;jettySize=auto;html=1;exitX=0.5;exitY=1;exitDx=0;exitDy=0;entryX=0.5;entryY=0;entryDx=0;entryDy=0;entryPerimeter=0;endArrow=none;endFill=0;strokeColor=#5c5c5c;flowAnimation=1;" parent="1" source="aTlmoTqcXMnjitFqs7Kw-9" target="aTlmoTqcXMnjitFqs7Kw-7" edge="1">
                    <mxGeometry relative="1" as="geometry"/>
                </mxCell>
                <mxCell id="aTlmoTqcXMnjitFqs7Kw-24" style="rounded=0;orthogonalLoop=1;jettySize=auto;html=1;exitX=0.5;exitY=1;exitDx=0;exitDy=0;entryX=0.5;entryY=0;entryDx=0;entryDy=0;entryPerimeter=0;endArrow=none;endFill=0;strokeColor=#5c5c5c;flowAnimation=1;" parent="1" source="aTlmoTqcXMnjitFqs7Kw-9" target="aTlmoTqcXMnjitFqs7Kw-6" edge="1">
                    <mxGeometry relative="1" as="geometry"/>
                </mxCell>
                <mxCell id="aTlmoTqcXMnjitFqs7Kw-25" style="rounded=0;orthogonalLoop=1;jettySize=auto;html=1;exitX=0.5;exitY=1;exitDx=0;exitDy=0;entryX=0.5;entryY=0;entryDx=0;entryDy=0;entryPerimeter=0;endArrow=none;endFill=0;strokeColor=#5c5c5c;flowAnimation=1;" parent="1" source="aTlmoTqcXMnjitFqs7Kw-9" target="aTlmoTqcXMnjitFqs7Kw-4" edge="1">
                    <mxGeometry relative="1" as="geometry"/>
                </mxCell>
                <mxCell id="aTlmoTqcXMnjitFqs7Kw-26" style="rounded=0;orthogonalLoop=1;jettySize=auto;html=1;exitX=0.5;exitY=1;exitDx=0;exitDy=0;entryX=0.5;entryY=0;entryDx=0;entryDy=0;entryPerimeter=0;endArrow=none;endFill=0;strokeColor=#5c5c5c;flowAnimation=1;" parent="1" source="aTlmoTqcXMnjitFqs7Kw-9" target="aTlmoTqcXMnjitFqs7Kw-5" edge="1">
                    <mxGeometry relative="1" as="geometry"/>
                </mxCell>
                <mxCell id="aTlmoTqcXMnjitFqs7Kw-9" value="&lt;b style=&quot;&quot;&gt;&lt;font color=&quot;#5c5c5c&quot;&gt;Arista cEOS&lt;/font&gt;&lt;/b&gt;" style="rounded=1;whiteSpace=wrap;html=1;fillColor=#d5e8d4;strokeColor=#82b366;" parent="1" vertex="1">
                    <mxGeometry x="726" y="140" width="120" height="30" as="geometry"/>
                </mxCell>
                <mxCell id="aTlmoTqcXMnjitFqs7Kw-39" style="edgeStyle=orthogonalEdgeStyle;rounded=0;orthogonalLoop=1;jettySize=auto;html=1;exitX=0.5;exitY=1;exitDx=0;exitDy=0;endArrow=none;endFill=0;strokeColor=#5c5c5c;flowAnimation=1;" parent="1" source="aTlmoTqcXMnjitFqs7Kw-10" target="aTlmoTqcXMnjitFqs7Kw-38" edge="1">
                    <mxGeometry relative="1" as="geometry"/>
                </mxCell>
                <mxCell id="aTlmoTqcXMnjitFqs7Kw-10" value="&lt;b&gt;&lt;font color=&quot;#5c5c5c&quot;&gt;Arista cEOS&lt;/font&gt;&lt;/b&gt;" style="rounded=1;whiteSpace=wrap;html=1;fillColor=#d5e8d4;strokeColor=#82b366;" parent="1" vertex="1">
                    <mxGeometry x="1131.5" y="543.5" width="120" height="30" as="geometry"/>
                </mxCell>
                <mxCell id="aTlmoTqcXMnjitFqs7Kw-40" style="edgeStyle=orthogonalEdgeStyle;rounded=0;orthogonalLoop=1;jettySize=auto;html=1;exitX=0.5;exitY=1;exitDx=0;exitDy=0;endArrow=none;endFill=0;strokeColor=#5c5c5c;flowAnimation=1;" parent="1" source="aTlmoTqcXMnjitFqs7Kw-11" target="aTlmoTqcXMnjitFqs7Kw-37" edge="1">
                    <mxGeometry relative="1" as="geometry"/>
                </mxCell>
                <mxCell id="aTlmoTqcXMnjitFqs7Kw-11" value="&lt;b style=&quot;&quot;&gt;&lt;font color=&quot;#5c5c5c&quot;&gt;Nokia SRLinux&lt;/font&gt;&lt;/b&gt;" style="rounded=1;whiteSpace=wrap;html=1;fillColor=#fff2cc;strokeColor=#d6b656;" parent="1" vertex="1">
                    <mxGeometry x="726" y="539" width="120" height="30" as="geometry"/>
                </mxCell>
                <mxCell id="aTlmoTqcXMnjitFqs7Kw-41" style="edgeStyle=orthogonalEdgeStyle;rounded=0;orthogonalLoop=1;jettySize=auto;html=1;exitX=0.5;exitY=1;exitDx=0;exitDy=0;endArrow=none;endFill=0;strokeColor=#5c5c5c;flowAnimation=1;" parent="1" target="aTlmoTqcXMnjitFqs7Kw-36" edge="1">
                    <mxGeometry relative="1" as="geometry">
                        <mxPoint x="362.5" y="569" as="sourcePoint"/>
                    </mxGeometry>
                </mxCell>
                <mxCell id="aTlmoTqcXMnjitFqs7Kw-12" value="&lt;b style=&quot;&quot;&gt;&lt;font color=&quot;#5c5c5c&quot;&gt;Nokia SRLinux&lt;/font&gt;&lt;/b&gt;" style="rounded=1;whiteSpace=wrap;html=1;fillColor=#fff2cc;strokeColor=#d6b656;" parent="1" vertex="1">
                    <mxGeometry x="302.25" y="539" width="120" height="30" as="geometry"/>
                </mxCell>
                <mxCell id="aTlmoTqcXMnjitFqs7Kw-19" style="rounded=0;orthogonalLoop=1;jettySize=auto;html=1;exitX=0.5;exitY=1;exitDx=0;exitDy=0;entryX=0.5;entryY=0;entryDx=0;entryDy=0;entryPerimeter=0;endArrow=none;endFill=0;strokeColor=#5c5c5c;flowAnimation=1;" parent="1" source="aTlmoTqcXMnjitFqs7Kw-14" target="aTlmoTqcXMnjitFqs7Kw-7" edge="1">
                    <mxGeometry relative="1" as="geometry"/>
                </mxCell>
                <mxCell id="aTlmoTqcXMnjitFqs7Kw-20" style="edgeStyle=orthogonalEdgeStyle;rounded=0;orthogonalLoop=1;jettySize=auto;html=1;exitX=0.5;exitY=1;exitDx=0;exitDy=0;entryX=0.5;entryY=0;entryDx=0;entryDy=0;entryPerimeter=0;endArrow=none;endFill=0;strokeColor=#5c5c5c;flowAnimation=1;" parent="1" source="aTlmoTqcXMnjitFqs7Kw-14" target="aTlmoTqcXMnjitFqs7Kw-6" edge="1">
                    <mxGeometry relative="1" as="geometry"/>
                </mxCell>
                <mxCell id="aTlmoTqcXMnjitFqs7Kw-21" style="rounded=0;orthogonalLoop=1;jettySize=auto;html=1;exitX=0.5;exitY=1;exitDx=0;exitDy=0;entryX=0.5;entryY=0;entryDx=0;entryDy=0;entryPerimeter=0;endArrow=none;endFill=0;strokeColor=#5c5c5c;flowAnimation=1;" parent="1" source="aTlmoTqcXMnjitFqs7Kw-14" target="aTlmoTqcXMnjitFqs7Kw-4" edge="1">
                    <mxGeometry relative="1" as="geometry"/>
                </mxCell>
                <mxCell id="aTlmoTqcXMnjitFqs7Kw-22" style="rounded=0;orthogonalLoop=1;jettySize=auto;html=1;exitX=0.5;exitY=1;exitDx=0;exitDy=0;entryX=0.5;entryY=0;entryDx=0;entryDy=0;entryPerimeter=0;endArrow=none;endFill=0;strokeColor=#5c5c5c;flowAnimation=1;" parent="1" source="aTlmoTqcXMnjitFqs7Kw-14" target="aTlmoTqcXMnjitFqs7Kw-5" edge="1">
                    <mxGeometry relative="1" as="geometry"/>
                </mxCell>
                <mxCell id="aTlmoTqcXMnjitFqs7Kw-14" value="&lt;b style=&quot;&quot;&gt;&lt;font color=&quot;#5c5c5c&quot;&gt;Arista cEOS&lt;/font&gt;&lt;/b&gt;" style="rounded=1;whiteSpace=wrap;html=1;fillColor=#d5e8d4;strokeColor=#82b366;" parent="1" vertex="1">
                    <mxGeometry x="305" y="130" width="120" height="30" as="geometry"/>
                </mxCell>
                <mxCell id="aTlmoTqcXMnjitFqs7Kw-27" value="" style="shadow=0;dashed=0;html=1;strokeColor=none;fillColor=#4495D1;labelPosition=center;verticalLabelPosition=bottom;verticalAlign=top;align=center;outlineConnect=0;shape=mxgraph.veeam.2d.virtual_machine;" parent="1" vertex="1">
                    <mxGeometry x="-57.5" y="600" width="40" height="40" as="geometry"/>
                </mxCell>
                <mxCell id="aTlmoTqcXMnjitFqs7Kw-30" value="&lt;div style=&quot;&quot;&gt;&lt;b style=&quot;color: rgb(92, 92, 92); font-family: Tahoma; background-color: initial;&quot;&gt;Spine 1&lt;/b&gt;&lt;/div&gt;&lt;font color=&quot;#5c5c5c&quot; face=&quot;Tahoma&quot;&gt;&lt;div style=&quot;&quot;&gt;&lt;span style=&quot;background-color: initial;&quot;&gt;192.168.100.1/32&lt;/span&gt;&lt;/div&gt;&lt;/font&gt;" style="rounded=1;whiteSpace=wrap;html=1;align=center;fillColor=#f5f5f5;fontColor=#333333;strokeColor=default;dashed=1;dashPattern=8 8;" parent="1" vertex="1">
                    <mxGeometry x="211" y="70" width="105" height="40" as="geometry"/>
                </mxCell>
                <mxCell id="aTlmoTqcXMnjitFqs7Kw-32" value="&lt;div style=&quot;&quot;&gt;&lt;b style=&quot;color: rgb(92, 92, 92); font-family: Tahoma; background-color: initial;&quot;&gt;Leaf 1&lt;/b&gt;&lt;/div&gt;&lt;font color=&quot;#5c5c5c&quot; face=&quot;Tahoma&quot;&gt;&lt;div style=&quot;&quot;&gt;&lt;span style=&quot;background-color: initial;&quot;&gt;192.168.110.1/32&lt;/span&gt;&lt;/div&gt;&lt;/font&gt;" style="rounded=1;whiteSpace=wrap;html=1;align=center;fillColor=#f5f5f5;fontColor=#333333;strokeColor=#666666;dashed=1;dashPattern=8 8;" parent="1" vertex="1">
                    <mxGeometry x="-191.75" y="490" width="105" height="40" as="geometry"/>
                </mxCell>
                <mxCell id="aTlmoTqcXMnjitFqs7Kw-36" value="" style="shadow=0;dashed=0;html=1;strokeColor=none;fillColor=#4495D1;labelPosition=center;verticalLabelPosition=bottom;verticalAlign=top;align=center;outlineConnect=0;shape=mxgraph.veeam.2d.virtual_machine;" parent="1" vertex="1">
                    <mxGeometry x="342.5" y="600" width="40" height="40" as="geometry"/>
                </mxCell>
                <mxCell id="aTlmoTqcXMnjitFqs7Kw-37" value="" style="shadow=0;dashed=0;html=1;strokeColor=none;fillColor=#4495D1;labelPosition=center;verticalLabelPosition=bottom;verticalAlign=top;align=center;outlineConnect=0;shape=mxgraph.veeam.2d.virtual_machine;" parent="1" vertex="1">
                    <mxGeometry x="765.5" y="600" width="40" height="40" as="geometry"/>
                </mxCell>
                <mxCell id="aTlmoTqcXMnjitFqs7Kw-38" value="" style="shadow=0;dashed=0;html=1;strokeColor=none;fillColor=#4495D1;labelPosition=center;verticalLabelPosition=bottom;verticalAlign=top;align=center;outlineConnect=0;shape=mxgraph.veeam.2d.virtual_machine;" parent="1" vertex="1">
                    <mxGeometry x="1171.75" y="600" width="40" height="40" as="geometry"/>
                </mxCell>
                <mxCell id="aTlmoTqcXMnjitFqs7Kw-43" value="&lt;div style=&quot;&quot;&gt;&lt;font face=&quot;Tahoma&quot; color=&quot;#5c5c5c&quot;&gt;&lt;b&gt;Host 1&amp;nbsp;&lt;/b&gt;&lt;/font&gt;&lt;/div&gt;&lt;div style=&quot;&quot;&gt;&lt;font face=&quot;Tahoma&quot; color=&quot;#5c5c5c&quot;&gt;10.100.100.1/24&lt;/font&gt;&lt;/div&gt;" style="rounded=1;whiteSpace=wrap;html=1;align=center;" parent="1" vertex="1">
                    <mxGeometry x="-86.5" y="640" width="97.5" height="40" as="geometry"/>
                </mxCell>
                <mxCell id="aTlmoTqcXMnjitFqs7Kw-44" value="&lt;div style=&quot;&quot;&gt;&lt;font face=&quot;Tahoma&quot; color=&quot;#5c5c5c&quot;&gt;&lt;b&gt;Host 2&amp;nbsp;&lt;/b&gt;&lt;/font&gt;&lt;/div&gt;&lt;div style=&quot;&quot;&gt;&lt;font face=&quot;Tahoma&quot; color=&quot;#5c5c5c&quot;&gt;10.100.100.2/24&lt;/font&gt;&lt;/div&gt;" style="rounded=1;whiteSpace=wrap;html=1;align=center;" parent="1" vertex="1">
                    <mxGeometry x="313.5" y="640" width="97.5" height="40" as="geometry"/>
                </mxCell>
                <mxCell id="aTlmoTqcXMnjitFqs7Kw-45" value="&lt;div style=&quot;&quot;&gt;&lt;font face=&quot;Tahoma&quot; color=&quot;#5c5c5c&quot;&gt;&lt;b&gt;Host 3&amp;nbsp;&lt;/b&gt;&lt;/font&gt;&lt;/div&gt;&lt;div style=&quot;&quot;&gt;&lt;font face=&quot;Tahoma&quot; color=&quot;#5c5c5c&quot;&gt;10.100.100.3/24&lt;/font&gt;&lt;/div&gt;" style="rounded=1;whiteSpace=wrap;html=1;align=center;" parent="1" vertex="1">
                    <mxGeometry x="736.5" y="640" width="97.5" height="40" as="geometry"/>
                </mxCell>
                <mxCell id="aTlmoTqcXMnjitFqs7Kw-46" value="&lt;div style=&quot;&quot;&gt;&lt;font face=&quot;Tahoma&quot; color=&quot;#5c5c5c&quot;&gt;&lt;b&gt;Host 4&amp;nbsp;&lt;/b&gt;&lt;/font&gt;&lt;/div&gt;&lt;div style=&quot;&quot;&gt;&lt;font face=&quot;Tahoma&quot; color=&quot;#5c5c5c&quot;&gt;10.100.100.4/24&lt;/font&gt;&lt;/div&gt;" style="rounded=1;whiteSpace=wrap;html=1;align=center;" parent="1" vertex="1">
                    <mxGeometry x="1142.75" y="640" width="97.5" height="40" as="geometry"/>
                </mxCell>
                <mxCell id="iRoN0Qlv0NIkLaMQXTU7-1" value="" style="shape=cylinder3;whiteSpace=wrap;html=1;boundedLbl=1;backgroundOutline=1;size=4.416107382550308;strokeColor=#6c8ebf;fillColor=#dae8fc;" parent="1" vertex="1">
                    <mxGeometry x="-300" y="154.5" width="10" height="490" as="geometry"/>
                </mxCell>
                <mxCell id="3aydak7BYhucDwHMAP_l-5" style="edgeStyle=orthogonalEdgeStyle;rounded=0;orthogonalLoop=1;jettySize=auto;html=1;exitX=1;exitY=0.5;exitDx=0;exitDy=0;entryX=0;entryY=0.059;entryDx=0;entryDy=0;entryPerimeter=0;endArrow=none;endFill=0;strokeColor=#6c8ebf;fillColor=#dae8fc;" parent="1" source="3aydak7BYhucDwHMAP_l-2" target="iRoN0Qlv0NIkLaMQXTU7-1" edge="1">
                    <mxGeometry relative="1" as="geometry"/>
                </mxCell>
                <mxCell id="3aydak7BYhucDwHMAP_l-2" value="&lt;font face=&quot;Tahoma&quot; color=&quot;#5c5c5c&quot;&gt;Netbox&lt;/font&gt;" style="rounded=1;whiteSpace=wrap;html=1;strokeColor=#5c5c5c;" parent="1" vertex="1">
                    <mxGeometry x="-370" y="163.5" width="60" height="40" as="geometry"/>
                </mxCell>
                <mxCell id="3aydak7BYhucDwHMAP_l-6" style="edgeStyle=orthogonalEdgeStyle;rounded=0;orthogonalLoop=1;jettySize=auto;html=1;exitX=1;exitY=0.5;exitDx=0;exitDy=0;entryX=0;entryY=0.181;entryDx=0;entryDy=0;entryPerimeter=0;strokeColor=#6c8ebf;endArrow=none;endFill=0;fillColor=#dae8fc;" parent="1" source="3aydak7BYhucDwHMAP_l-3" target="iRoN0Qlv0NIkLaMQXTU7-1" edge="1">
                    <mxGeometry relative="1" as="geometry"/>
                </mxCell>
                <mxCell id="3aydak7BYhucDwHMAP_l-3" value="&lt;font face=&quot;Tahoma&quot; color=&quot;#5c5c5c&quot;&gt;Slurp It&lt;/font&gt;" style="rounded=1;whiteSpace=wrap;html=1;strokeColor=#5c5c5c;" parent="1" vertex="1">
                    <mxGeometry x="-370" y="223.5" width="60" height="40" as="geometry"/>
                </mxCell>
                <mxCell id="3aydak7BYhucDwHMAP_l-7" value="&lt;font color=&quot;#8aa6cf&quot;&gt;Docker Bridge&lt;/font&gt;" style="text;html=1;strokeColor=none;fillColor=none;align=center;verticalAlign=middle;whiteSpace=wrap;rounded=0;" parent="1" vertex="1">
                    <mxGeometry x="-325" y="104.5" width="60" height="30" as="geometry"/>
                </mxCell>
                <mxCell id="2" value="&lt;div style=&quot;&quot;&gt;&lt;b style=&quot;color: rgb(92, 92, 92); font-family: Tahoma; background-color: initial;&quot;&gt;Spine 2&lt;/b&gt;&lt;/div&gt;&lt;font color=&quot;#5c5c5c&quot; face=&quot;Tahoma&quot;&gt;&lt;div style=&quot;&quot;&gt;&lt;span style=&quot;background-color: initial;&quot;&gt;192.168.100.2/32&lt;/span&gt;&lt;/div&gt;&lt;/font&gt;" style="rounded=1;whiteSpace=wrap;html=1;align=center;fillColor=#f5f5f5;fontColor=#333333;strokeColor=#666666;dashed=1;dashPattern=8 8;" vertex="1" parent="1">
                    <mxGeometry x="633" y="80" width="105" height="40" as="geometry"/>
                </mxCell>
                <mxCell id="3" value="&lt;div style=&quot;&quot;&gt;&lt;b style=&quot;color: rgb(92, 92, 92); font-family: Tahoma; background-color: initial;&quot;&gt;Leaf 2&lt;/b&gt;&lt;/div&gt;&lt;font color=&quot;#5c5c5c&quot; face=&quot;Tahoma&quot;&gt;&lt;div style=&quot;&quot;&gt;&lt;span style=&quot;background-color: initial;&quot;&gt;192.168.110.2/32&lt;/span&gt;&lt;/div&gt;&lt;/font&gt;" style="rounded=1;whiteSpace=wrap;html=1;align=center;fillColor=#f5f5f5;fontColor=#333333;strokeColor=#666666;dashed=1;dashPattern=8 8;" vertex="1" parent="1">
                    <mxGeometry x="211" y="490" width="105" height="40" as="geometry"/>
                </mxCell>
                <mxCell id="4" value="&lt;div style=&quot;&quot;&gt;&lt;b style=&quot;color: rgb(92, 92, 92); font-family: Tahoma; background-color: initial;&quot;&gt;Leaf 3&lt;/b&gt;&lt;/div&gt;&lt;font color=&quot;#5c5c5c&quot; face=&quot;Tahoma&quot;&gt;&lt;div style=&quot;&quot;&gt;&lt;span style=&quot;background-color: initial;&quot;&gt;192.168.110.3/32&lt;/span&gt;&lt;/div&gt;&lt;/font&gt;" style="rounded=1;whiteSpace=wrap;html=1;align=center;fillColor=#f5f5f5;fontColor=#333333;strokeColor=#666666;dashed=1;dashPattern=8 8;" vertex="1" parent="1">
                    <mxGeometry x="633" y="490" width="105" height="40" as="geometry"/>
                </mxCell>
                <mxCell id="5" value="&lt;div style=&quot;&quot;&gt;&lt;b style=&quot;color: rgb(92, 92, 92); font-family: Tahoma; background-color: initial;&quot;&gt;Leaf 4&lt;/b&gt;&lt;/div&gt;&lt;font color=&quot;#5c5c5c&quot; face=&quot;Tahoma&quot;&gt;&lt;div style=&quot;&quot;&gt;&lt;span style=&quot;background-color: initial;&quot;&gt;192.168.110.4/32&lt;/span&gt;&lt;/div&gt;&lt;/font&gt;" style="rounded=1;whiteSpace=wrap;html=1;align=center;fillColor=#f5f5f5;fontColor=#333333;strokeColor=#666666;dashed=1;dashPattern=8 8;" vertex="1" parent="1">
                    <mxGeometry x="1040" y="490" width="105" height="40" as="geometry"/>
                </mxCell>
                <mxCell id="6" value="&lt;div style=&quot;&quot;&gt;&lt;font face=&quot;Tahoma&quot; color=&quot;#5c5c5c&quot;&gt;&lt;b&gt;AS : 65001&lt;/b&gt;&lt;/font&gt;&lt;/div&gt;" style="rounded=1;whiteSpace=wrap;html=1;align=center;fillColor=#f5f5f5;fontColor=#333333;strokeColor=default;dashed=1;dashPattern=8 8;" vertex="1" parent="1">
                    <mxGeometry x="211" y="40" width="105" height="20" as="geometry"/>
                </mxCell>
                <mxCell id="7" value="&lt;div style=&quot;&quot;&gt;&lt;font face=&quot;Tahoma&quot; color=&quot;#5c5c5c&quot;&gt;&lt;b&gt;AS : 65002&lt;/b&gt;&lt;/font&gt;&lt;/div&gt;" style="rounded=1;whiteSpace=wrap;html=1;align=center;fillColor=#f5f5f5;fontColor=#333333;strokeColor=default;dashed=1;dashPattern=8 8;" vertex="1" parent="1">
                    <mxGeometry x="631.5" y="50" width="105" height="20" as="geometry"/>
                </mxCell>
                <mxCell id="9" value="&lt;div style=&quot;&quot;&gt;&lt;font face=&quot;Tahoma&quot; color=&quot;#5c5c5c&quot;&gt;&lt;b&gt;AS : 65101&lt;/b&gt;&lt;/font&gt;&lt;/div&gt;" style="rounded=1;whiteSpace=wrap;html=1;align=center;fillColor=#f5f5f5;fontColor=#333333;strokeColor=default;dashed=1;dashPattern=8 8;" vertex="1" parent="1">
                    <mxGeometry x="-191.75" y="459" width="105" height="20" as="geometry"/>
                </mxCell>
                <mxCell id="10" value="&lt;div style=&quot;&quot;&gt;&lt;font face=&quot;Tahoma&quot; color=&quot;#5c5c5c&quot;&gt;&lt;b&gt;AS : 65102&lt;/b&gt;&lt;/font&gt;&lt;/div&gt;" style="rounded=1;whiteSpace=wrap;html=1;align=center;fillColor=#f5f5f5;fontColor=#333333;strokeColor=default;dashed=1;dashPattern=8 8;" vertex="1" parent="1">
                    <mxGeometry x="211" y="463.5" width="105" height="20" as="geometry"/>
                </mxCell>
                <mxCell id="11" value="&lt;div style=&quot;&quot;&gt;&lt;font face=&quot;Tahoma&quot; color=&quot;#5c5c5c&quot;&gt;&lt;b&gt;AS : 65103&lt;/b&gt;&lt;/font&gt;&lt;/div&gt;" style="rounded=1;whiteSpace=wrap;html=1;align=center;fillColor=#f5f5f5;fontColor=#333333;strokeColor=default;dashed=1;dashPattern=8 8;" vertex="1" parent="1">
                    <mxGeometry x="631.5" y="463.5" width="105" height="20" as="geometry"/>
                </mxCell>
                <mxCell id="12" value="&lt;div style=&quot;&quot;&gt;&lt;font face=&quot;Tahoma&quot; color=&quot;#5c5c5c&quot;&gt;&lt;b&gt;AS : 65104&lt;/b&gt;&lt;/font&gt;&lt;/div&gt;" style="rounded=1;whiteSpace=wrap;html=1;align=center;fillColor=#f5f5f5;fontColor=#333333;strokeColor=default;dashed=1;dashPattern=8 8;" vertex="1" parent="1">
                    <mxGeometry x="1040" y="463.5" width="105" height="20" as="geometry"/>
                </mxCell>
                <mxCell id="13" value="&lt;div style=&quot;&quot;&gt;&lt;font color=&quot;#5c5c5c&quot;&gt;10.1.0.1/31&lt;/font&gt;&lt;/div&gt;" style="rounded=1;whiteSpace=wrap;html=1;align=center;fillColor=#ffe6cc;strokeColor=#d79b00;dashed=1;dashPattern=8 8;" vertex="1" parent="1">
                    <mxGeometry x="250" y="163.5" width="81.5" height="20" as="geometry"/>
                </mxCell>
                <mxCell id="14" value="&lt;div style=&quot;&quot;&gt;&lt;font color=&quot;#5c5c5c&quot;&gt;10.1.0.2/31&lt;/font&gt;&lt;/div&gt;" style="rounded=1;whiteSpace=wrap;html=1;align=center;fillColor=#ffe6cc;strokeColor=#d79b00;dashed=1;dashPattern=8 8;" vertex="1" parent="1">
                    <mxGeometry x="-100" y="420" width="81.5" height="20" as="geometry"/>
                </mxCell>
                <mxCell id="15" value="&lt;div style=&quot;&quot;&gt;&lt;font color=&quot;#5c5c5c&quot;&gt;10.1.0.3/31&lt;/font&gt;&lt;/div&gt;" style="rounded=1;whiteSpace=wrap;html=1;align=center;fillColor=#ffe6cc;strokeColor=#d79b00;dashed=1;dashPattern=8 8;" vertex="1" parent="1">
                    <mxGeometry x="324.25" y="190" width="81.5" height="20" as="geometry"/>
                </mxCell>
                <mxCell id="19" value="&lt;div style=&quot;&quot;&gt;&lt;font color=&quot;#5c5c5c&quot;&gt;10.1.0.4/31&lt;/font&gt;&lt;/div&gt;" style="rounded=1;whiteSpace=wrap;html=1;align=center;fillColor=#ffe6cc;strokeColor=#d79b00;dashed=1;dashPattern=8 8;" vertex="1" parent="1">
                    <mxGeometry x="305" y="420" width="81.5" height="20" as="geometry"/>
                </mxCell>
                <mxCell id="20" value="&lt;div style=&quot;&quot;&gt;&lt;font color=&quot;#5c5c5c&quot;&gt;10.2.0.1/31&lt;/font&gt;&lt;/div&gt;" style="rounded=1;whiteSpace=wrap;html=1;align=center;fillColor=#ffe6cc;strokeColor=#d79b00;dashed=1;dashPattern=8 8;" vertex="1" parent="1">
                    <mxGeometry x="644.75" y="183.5" width="81.5" height="20" as="geometry"/>
                </mxCell>
                <mxCell id="21" value="&lt;div style=&quot;&quot;&gt;&lt;font color=&quot;#5c5c5c&quot;&gt;10.2.0.2/31&lt;/font&gt;&lt;/div&gt;" style="rounded=1;whiteSpace=wrap;html=1;align=center;fillColor=#ffe6cc;strokeColor=#d79b00;dashed=1;dashPattern=8 8;" vertex="1" parent="1">
                    <mxGeometry x="11" y="430" width="81.5" height="20" as="geometry"/>
                </mxCell>
                <mxCell id="22" value="&lt;div style=&quot;&quot;&gt;&lt;font color=&quot;#5c5c5c&quot;&gt;10.2.0.3/31&lt;/font&gt;&lt;/div&gt;" style="rounded=1;whiteSpace=wrap;html=1;align=center;fillColor=#ffe6cc;strokeColor=#d79b00;dashed=1;dashPattern=8 8;" vertex="1" parent="1">
                    <mxGeometry x="655" y="223.5" width="81.5" height="20" as="geometry"/>
                </mxCell>
                <mxCell id="23" value="&lt;div style=&quot;&quot;&gt;&lt;font color=&quot;#5c5c5c&quot;&gt;10.2.0.5/31&lt;/font&gt;&lt;/div&gt;" style="rounded=1;whiteSpace=wrap;html=1;align=center;fillColor=#ffe6cc;strokeColor=#d79b00;dashed=1;dashPattern=8 8;" vertex="1" parent="1">
                    <mxGeometry x="745.25" y="210" width="81.5" height="20" as="geometry"/>
                </mxCell>
                <mxCell id="25" value="&lt;div style=&quot;&quot;&gt;&lt;font color=&quot;#5c5c5c&quot;&gt;10.1.0.5/31&lt;/font&gt;&lt;/div&gt;" style="rounded=1;whiteSpace=wrap;html=1;align=center;fillColor=#ffe6cc;strokeColor=#d79b00;dashed=1;dashPattern=8 8;" vertex="1" parent="1">
                    <mxGeometry x="411" y="210" width="81.5" height="20" as="geometry"/>
                </mxCell>
                <mxCell id="27" value="&lt;div style=&quot;&quot;&gt;&lt;font color=&quot;#5c5c5c&quot;&gt;10.1.0.6/31&lt;/font&gt;&lt;/div&gt;" style="rounded=1;whiteSpace=wrap;html=1;align=center;fillColor=#ffe6cc;strokeColor=#d79b00;dashed=1;dashPattern=8 8;" vertex="1" parent="1">
                    <mxGeometry x="700" y="420" width="81.5" height="20" as="geometry"/>
                </mxCell>
                <mxCell id="28" value="&lt;div style=&quot;&quot;&gt;&lt;font color=&quot;#5c5c5c&quot;&gt;10.1.0.7/31&lt;/font&gt;&lt;/div&gt;" style="rounded=1;whiteSpace=wrap;html=1;align=center;fillColor=#ffe6cc;strokeColor=#d79b00;dashed=1;dashPattern=8 8;" vertex="1" parent="1">
                    <mxGeometry x="420" y="170" width="81.5" height="20" as="geometry"/>
                </mxCell>
                <mxCell id="29" value="&lt;div style=&quot;&quot;&gt;&lt;font color=&quot;#5c5c5c&quot;&gt;10.1.0.8/31&lt;/font&gt;&lt;/div&gt;" style="rounded=1;whiteSpace=wrap;html=1;align=center;fillColor=#ffe6cc;strokeColor=#d79b00;dashed=1;dashPattern=8 8;" vertex="1" parent="1">
                    <mxGeometry x="1040" y="420" width="81.5" height="20" as="geometry"/>
                </mxCell>
                <mxCell id="30" value="&lt;div style=&quot;&quot;&gt;&lt;font color=&quot;#5c5c5c&quot;&gt;10.2.0.4/31&lt;/font&gt;&lt;/div&gt;" style="rounded=1;whiteSpace=wrap;html=1;align=center;fillColor=#ffe6cc;strokeColor=#d79b00;dashed=1;dashPattern=8 8;" vertex="1" parent="1">
                    <mxGeometry x="400" y="410" width="81.5" height="20" as="geometry"/>
                </mxCell>
                <mxCell id="31" value="&lt;div style=&quot;&quot;&gt;&lt;font color=&quot;#5c5c5c&quot;&gt;10.2.0.6/31&lt;/font&gt;&lt;/div&gt;" style="rounded=1;whiteSpace=wrap;html=1;align=center;fillColor=#ffe6cc;strokeColor=#d79b00;dashed=1;dashPattern=8 8;" vertex="1" parent="1">
                    <mxGeometry x="745.25" y="389.5" width="81.5" height="20" as="geometry"/>
                </mxCell>
                <mxCell id="32" value="&lt;div style=&quot;&quot;&gt;&lt;font color=&quot;#5c5c5c&quot;&gt;10.2.0.7/31&lt;/font&gt;&lt;/div&gt;" style="rounded=1;whiteSpace=wrap;html=1;align=center;fillColor=#ffe6cc;strokeColor=#d79b00;dashed=1;dashPattern=8 8;" vertex="1" parent="1">
                    <mxGeometry x="834" y="220" width="81.5" height="20" as="geometry"/>
                </mxCell>
                <mxCell id="33" value="&lt;div style=&quot;&quot;&gt;&lt;font color=&quot;#5c5c5c&quot;&gt;10.2.0.8/31&lt;/font&gt;&lt;/div&gt;" style="rounded=1;whiteSpace=wrap;html=1;align=center;fillColor=#ffe6cc;strokeColor=#d79b00;dashed=1;dashPattern=8 8;" vertex="1" parent="1">
                    <mxGeometry x="1121.5" y="400" width="81.5" height="20" as="geometry"/>
                </mxCell>
                <mxCell id="34" value="&lt;div style=&quot;&quot;&gt;&lt;font face=&quot;Tahoma&quot; color=&quot;#5c5c5c&quot;&gt;&lt;b&gt;VLAN 50&lt;/b&gt;&lt;/font&gt;&lt;/div&gt;" style="rounded=1;whiteSpace=wrap;html=1;align=center;fillColor=#fff2cc;strokeColor=#d6b656;dashed=1;dashPattern=8 8;" vertex="1" parent="1">
                    <mxGeometry x="327.5" y="700" width="75" height="40" as="geometry"/>
                </mxCell>
                <mxCell id="35" value="&lt;div style=&quot;&quot;&gt;&lt;font face=&quot;Tahoma&quot; color=&quot;#5c5c5c&quot;&gt;&lt;b&gt;VLAN 50&lt;/b&gt;&lt;/font&gt;&lt;/div&gt;" style="rounded=1;whiteSpace=wrap;html=1;align=center;fillColor=#fff2cc;strokeColor=#d6b656;dashed=1;dashPattern=8 8;" vertex="1" parent="1">
                    <mxGeometry x="1154.25" y="700" width="75" height="40" as="geometry"/>
                </mxCell>
                <mxCell id="36" value="&lt;div style=&quot;&quot;&gt;&lt;font face=&quot;Tahoma&quot; color=&quot;#5c5c5c&quot;&gt;&lt;b&gt;VLAN 75&lt;/b&gt;&lt;/font&gt;&lt;/div&gt;" style="rounded=1;whiteSpace=wrap;html=1;align=center;fillColor=#d5e8d4;strokeColor=#82b366;dashed=1;dashPattern=8 8;" vertex="1" parent="1">
                    <mxGeometry x="748.5" y="700" width="75" height="40" as="geometry"/>
                </mxCell>
                <mxCell id="37" value="&lt;div style=&quot;&quot;&gt;&lt;font face=&quot;Tahoma&quot; color=&quot;#5c5c5c&quot;&gt;&lt;b&gt;VLAN 75&lt;/b&gt;&lt;/font&gt;&lt;/div&gt;" style="rounded=1;whiteSpace=wrap;html=1;align=center;fillColor=#d5e8d4;strokeColor=#82b366;dashed=1;dashPattern=8 8;" vertex="1" parent="1">
                    <mxGeometry x="-75.25" y="700" width="75" height="40" as="geometry"/>
                </mxCell>
            </root>
        </mxGraphModel>
    </diagram>
</mxfile>